<svg width="142" height="106" fill="none" xmlns="http://www.w3.org/2000/svg"><rect width="142" height="106" rx="8" fill="#000"/><g clip-path="url(#a)" fill="#fff"><path d="M72.33 56.469h6.306c1.793 0 2.929-.987 2.929-2.572 0-1.495-1.136-2.572-2.929-2.572H72.33c-.21 0-.389.18-.389.36v4.425c.03.21.18.359.389.359Zm0 10.197h6.515c2.003 0 3.198-1.016 3.198-2.81 0-1.556-1.136-2.812-3.198-2.812H72.33c-.21 0-.389.18-.389.36v4.874c.03.239.18.388.389.388Z"/><path d="m95.402 28.12-18.649 18.6h3.048c4.752 0 7.562 2.99 7.562 6.25 0 2.572-1.734 4.456-3.587 5.293-.299.12-.299.539.03.658 2.152.838 3.676 3.08 3.676 5.712 0 3.708-2.48 6.669-7.292 6.669H66.98c-.21 0-.388-.18-.388-.36V56.859L46.119 77.253c-.269.269-.09.747.3.747H95.64c.18 0 .329-.15.329-.329V28.39c.09-.329-.329-.508-.568-.27Z"/></g><defs><clipPath id="a"><path fill="#fff" transform="translate(46 28)" d="M0 0h50v50H0z"/></clipPath></defs></svg>
