<svg width="142" height="106" fill="none" xmlns="http://www.w3.org/2000/svg"><rect width="142" height="106" rx="8" fill="#3448C5"/><g clip-path="url(#a)" fill="#fff"><path d="M86.581 48.683a16.779 16.779 0 0 0-6.022-8.415A16.707 16.707 0 0 0 70.757 37a16.389 16.389 0 0 0-8.482 2.31 16.446 16.446 0 0 0-6.078 6.365 12.372 12.372 0 0 0-6.79 3.665 12.442 12.442 0 0 0-1.854 14.578 12.394 12.394 0 0 0 5.655 5.256l.312.145h.017v-3.53a9.263 9.263 0 0 1-3.682-4.297 9.293 9.293 0 0 1-.5-5.644 9.275 9.275 0 0 1 2.868-4.88 9.232 9.232 0 0 1 5.166-2.296l.868-.09.379-.795a13.335 13.335 0 0 1 4.949-5.593 13.284 13.284 0 0 1 7.172-2.046c3.022.02 5.95 1.054 8.32 2.935a13.59 13.59 0 0 1 4.756 7.448l.289 1.193 1.224.02a7.676 7.676 0 0 1 5.318 2.301 7.716 7.716 0 0 1 2.205 5.37c0 2.933-1.687 5.326-4.549 6.542v3.35l.206-.069c4.615-1.511 7.483-5.277 7.483-9.823a10.894 10.894 0 0 0-2.708-7.138 10.84 10.84 0 0 0-6.72-3.594Z"/><path d="m64.68 68.913.69.69a.138.138 0 0 1 .03.152.136.136 0 0 1-.13.084h-5.427a2.462 2.462 0 0 1-2.283-1.527 2.481 2.481 0 0 1-.189-.948V56.77a.136.136 0 0 0-.136-.136h-1.177a.14.14 0 0 1-.099-.236l4.61-4.618a.135.135 0 0 1 .097-.042.131.131 0 0 1 .097.042l4.606 4.618a.138.138 0 0 1 .032.152.136.136 0 0 1-.13.084h-1.178a.136.136 0 0 0-.136.136v10.404c.003.653.263 1.278.723 1.74ZM74.866 68.913l.688.69a.138.138 0 0 1 .032.152.136.136 0 0 1-.13.084h-5.44a2.462 2.462 0 0 1-2.283-1.527 2.48 2.48 0 0 1-.188-.948v-7.932a.136.136 0 0 0-.136-.14h-1.154a.14.14 0 0 1-.099-.234l4.598-4.619a.134.134 0 0 1 .15-.03.134.134 0 0 1 .044.03l4.606 4.61a.138.138 0 0 1 .032.152.136.136 0 0 1-.13.083h-1.178a.135.135 0 0 0-.097.041.138.138 0 0 0-.039.098v7.75c.003.653.263 1.278.724 1.74ZM85.062 68.913l.689.69a.136.136 0 0 1-.019.213.136.136 0 0 1-.076.023h-5.443c-.655 0-1.283-.26-1.746-.725a2.48 2.48 0 0 1-.725-1.75v-5.271a.136.136 0 0 0-.136-.137h-1.178a.136.136 0 0 1-.095-.235l4.606-4.621a.139.139 0 0 1 .194 0l4.607 4.621a.137.137 0 0 1-.099.23h-1.18a.136.136 0 0 0-.136.136v5.086c.006.655.271 1.28.737 1.74Z"/></g><defs><clipPath id="a"><path fill="#fff" transform="translate(46 37)" d="M0 0h50v32.836H0z"/></clipPath></defs></svg>
