<svg width="142" height="106" viewBox="0 0 142 106" fill="none" xmlns="http://www.w3.org/2000/svg">
<rect width="142" height="106" rx="8" fill="#6B0155"/>
<path d="M70.8817 59.2017H72.3146V56.3146H75.2017V54.8817H72.3146V52H70.8817V54.8817H68V56.3146H70.8817V59.2017Z" fill="white"/>
<path d="M32.3209 63.0799L33.4148 63.7115L45.6016 42.604L44.5077 41.9724L32.3209 63.0799Z" fill="#E535AB"/>
<path d="M56.4434 61.3934H32.0698V62.6566H56.4434V61.3934Z" fill="#E535AB"/>
<path d="M32.552 62.1031L44.7434 69.142L45.375 68.0481L33.1836 61.0092L32.552 62.1031Z" fill="#E535AB"/>
<path d="M43.1431 43.7581L55.3345 50.797L55.9661 49.7031L43.7747 42.6642L43.1431 43.7581Z" fill="#E535AB"/>
<path d="M32.5554 49.6988L33.187 50.7927L45.3784 43.7538L44.7468 42.6599L32.5554 49.6988Z" fill="#E535AB"/>
<path d="M42.9228 42.604L55.1096 63.7115L56.2035 63.0799L44.0168 41.9724L42.9228 42.604Z" fill="#E535AB"/>
<path d="M34.2993 48.8608H33.0361V62.9386H34.2993V48.8608Z" fill="#E535AB"/>
<path d="M55.4846 48.8608H54.2214V62.9386H55.4846V48.8608Z" fill="#E535AB"/>
<path d="M43.9766 67.6529L44.5283 68.6084L55.1315 62.4865L54.5798 61.531L43.9766 67.6529Z" fill="#E535AB"/>
<path d="M57.1591 63.3496C56.4286 64.6204 54.8001 65.0542 53.5293 64.3237C52.2585 63.5931 51.8248 61.9647 52.5553 60.6939C53.2858 59.4231 54.9143 58.9893 56.1851 59.7198C57.4635 60.458 57.8972 62.0788 57.1591 63.3496Z" fill="#E535AB"/>
<path d="M35.9584 51.106C35.2279 52.3768 33.5994 52.8106 32.3286 52.0801C31.0578 51.3495 30.6241 49.7211 31.3546 48.4503C32.0851 47.1795 33.7136 46.7457 34.9844 47.4763C36.2552 48.2144 36.689 49.8352 35.9584 51.106Z" fill="#E535AB"/>
<path d="M31.3624 63.3493C30.6319 62.0785 31.0657 60.4577 32.3365 59.7195C33.6073 58.989 35.2281 59.4228 35.9662 60.6936C36.6968 61.9644 36.263 63.5852 34.9922 64.3234C33.7138 65.0539 32.0929 64.6201 31.3624 63.3493Z" fill="#E535AB"/>
<path d="M52.5626 51.106C51.8321 49.8352 52.2658 48.2144 53.5367 47.4763C54.8075 46.7457 56.4283 47.1795 57.1664 48.4503C57.897 49.7211 57.4632 51.3419 56.1924 52.0801C54.9216 52.8106 53.2931 52.3768 52.5626 51.106Z" fill="#E535AB"/>
<path d="M44.2605 70.7998C42.7918 70.7998 41.6047 69.6127 41.6047 68.144C41.6047 66.6754 42.7918 65.4883 44.2605 65.4883C45.7291 65.4883 46.9162 66.6754 46.9162 68.144C46.9162 69.6051 45.7291 70.7998 44.2605 70.7998Z" fill="#E535AB"/>
<path d="M44.2605 46.3115C42.7918 46.3115 41.6047 45.1244 41.6047 43.6558C41.6047 42.1871 42.7918 41 44.2605 41C45.7291 41 46.9162 42.1871 46.9162 43.6558C46.9162 45.1244 45.7291 46.3115 44.2605 46.3115Z" fill="#E535AB"/>
<path d="M93.0469 50.0326H100.279V50.6073H93.7098V54.9334H99.8869V55.5082H93.7098V60.2577H100.354V60.8325H93.0469V50.0326ZM100.926 50.0326H101.695L105.1 54.7821L108.58 50.0326L113.314 43.9995L105.537 55.2813L109.544 60.8325H108.746L105.1 55.7804L101.439 60.8325H100.655L104.693 55.2813L100.926 50.0326ZM109.831 50.6073V50.0326H118.072V50.6073H114.275V60.8325H113.612V50.6073H109.831ZM83.9998 50.0326H84.8284L96.2548 67.131L91.5328 60.8325L84.6928 50.8494L84.6627 60.8325H83.9998V50.0326ZM118.005 60.0842C117.869 60.0842 117.768 59.9793 117.768 59.8437C117.768 59.7081 117.869 59.6031 118.005 59.6031C118.142 59.6031 118.242 59.7081 118.242 59.8437C118.242 59.9793 118.142 60.0842 118.005 60.0842ZM118.656 59.4514H119.011C119.016 59.6435 119.156 59.7727 119.362 59.7727C119.593 59.7727 119.724 59.6338 119.724 59.3739V57.7272H120.085V59.3755C120.085 59.8437 119.814 60.1133 119.366 60.1133C118.945 60.1133 118.656 59.8518 118.656 59.4514ZM120.557 59.4304H120.915C120.946 59.6516 121.162 59.792 121.473 59.792C121.763 59.792 121.976 59.6419 121.976 59.4352C121.976 59.2576 121.841 59.1511 121.533 59.0784L121.233 59.0058C120.812 58.9073 120.62 58.7039 120.62 58.3616C120.62 57.9467 120.959 57.6707 121.467 57.6707C121.939 57.6707 122.284 57.9467 122.305 58.339H121.953C121.92 58.1243 121.733 57.9903 121.462 57.9903C121.176 57.9903 120.986 58.1275 120.986 58.3374C120.986 58.5037 121.109 58.599 121.412 58.67L121.668 58.733C122.145 58.8443 122.342 59.0381 122.342 59.3884C122.342 59.834 121.997 60.1133 121.446 60.1133C120.93 60.1133 120.583 59.8469 120.557 59.4304Z" fill="white"/>
</svg>
