<svg width="142" height="106" viewBox="0 0 142 106" fill="none" xmlns="http://www.w3.org/2000/svg">
<rect width="142" height="106" rx="8" fill="#8976E8"/>
<g filter="url(#filter0_d)">
<rect x="13" y="14" width="116" height="78" rx="4" fill="white"/>
<path d="M13 18C13 15.7909 14.7909 14 17 14H23V92H17C14.7909 92 13 90.2091 13 88V18Z" fill="#6B51EB"/>
<rect x="16" y="27" width="3.875" height="3.875" rx="0.484375" fill="#C7BEF9"/>
<rect x="16" y="34.0625" width="3.875" height="3.875" rx="0.484375" fill="#C7BEF9"/>
<rect x="16" y="41.125" width="3.875" height="3.875" rx="0.484375" fill="#C7BEF9"/>
<rect x="16" y="48.1875" width="3.875" height="3.875" rx="0.484375" fill="#C7BEF9"/>
<rect x="16" y="55.25" width="3.875" height="3.875" rx="0.484375" fill="#C7BEF9"/>
<rect x="16" y="76" width="3.875" height="3.875" rx="0.484375" fill="#C7BEF9"/>
<rect x="16" y="83.0625" width="3.875" height="3.875" rx="1.9375" fill="#C7BEF9"/>
<path fill-rule="evenodd" clip-rule="evenodd" d="M19.2 16.9333L18.4 17.4L17.6 17.8666L16.8 18.3333V19.2667V19.7333V20.2V20.6667V21.1334L17.6 20.6667L18.4 20.2V19.7333V19.2667L17.6 19.7333V18.8L18.4 18.3333L19.2 17.8666V18.3333V18.8V19.2667V19.7333V20.2V20.6667L18.4 21.1334L17.6 21.6L16.8 22.0667L16 22.5333L16.8 23L17.6 22.5333L18.4 22.0667L19.2 21.6L20 21.1334V20.2V19.2667V18.3333V17.9754V17.4V16.4667L19.2 16V16.9333Z" fill="#F2F1FF"/>
<path d="M23 23H54V92H23V23Z" fill="#9D96F8" fill-opacity="0.17"/>
<rect x="27" y="27" width="19" height="2" rx="1" fill="#8D79F0"/>
<rect x="27" y="32" width="12" height="2" rx="1" fill="#8D79F0"/>
<rect x="27" y="37" width="8" height="2" rx="1" fill="#8D79F0"/>
<rect x="27" y="42" width="5" height="2" rx="1" fill="#8D79F0"/>
<rect x="27" y="47" width="13" height="2" rx="1" fill="#8D79F0"/>
<rect x="27" y="52" width="19" height="2" rx="1" fill="#8D79F0"/>
<path d="M54 23H129V88C129 90.2091 127.209 92 125 92H54V23Z" fill="white" fill-opacity="0.26"/>
<rect x="64" y="32" width="49" height="2" rx="1" fill="#E6E4FD"/>
<rect x="64" y="36" width="57" height="4" rx="1" fill="#E5DDFE"/>
<rect x="64" y="48" width="49" height="2" rx="1" fill="#E6E4FD"/>
<circle cx="65" cy="53" r="1" fill="#8D79F0"/>
<rect x="67" y="52.5" width="30" height="1" rx="0.5" fill="#CFCBFB"/>
<circle cx="65" cy="57" r="0.9" fill="white" stroke="#8D79F0" stroke-width="0.2"/>
<rect x="67" y="56.5" width="30" height="1" rx="0.5" fill="#E6E4FD"/>
<circle cx="65" cy="61" r="0.9" fill="white" stroke="#8D79F0" stroke-width="0.2"/>
<rect x="67" y="60.5" width="30" height="1" rx="0.5" fill="#E6E4FD"/>
<rect x="64" y="70" width="12" height="2" rx="1" fill="#E6E4FD"/>
<rect x="64" y="74" width="28" height="4" rx="1" fill="#E5DDFE"/>
<path d="M23 14H125C127.209 14 129 15.7909 129 18V23H23V14Z" fill="white"/>
<rect x="99" y="17" width="10" height="3" rx="1" fill="#6246EA"/>
<rect x="101" y="18" width="6" height="1" rx="0.5" fill="#8D79F0"/>
<line x1="23" y1="22.95" x2="129" y2="22.95" stroke="#C7BEF9" stroke-width="0.1"/>
<rect x="112" y="17" width="10" height="3" rx="1" fill="#6246EA"/>
<rect x="114" y="18" width="6" height="1" rx="0.5" fill="#8D79F0"/>
</g>
<defs>
<filter id="filter0_d" x="9" y="12" width="124" height="86" filterUnits="userSpaceOnUse" color-interpolation-filters="sRGB">
<feFlood flood-opacity="0" result="BackgroundImageFix"/>
<feColorMatrix in="SourceAlpha" type="matrix" values="0 0 0 0 0 0 0 0 0 0 0 0 0 0 0 0 0 0 127 0" result="hardAlpha"/>
<feOffset dy="2"/>
<feGaussianBlur stdDeviation="2"/>
<feColorMatrix type="matrix" values="0 0 0 0 0 0 0 0 0 0 0 0 0 0 0 0 0 0 0.05 0"/>
<feBlend mode="normal" in2="BackgroundImageFix" result="effect1_dropShadow"/>
<feBlend mode="normal" in="SourceGraphic" in2="effect1_dropShadow" result="shape"/>
</filter>
</defs>
</svg>
